<?xml version="1.0" encoding="utf-8"?>
<!-- Generator: Adobe Illustrator 23.0.3, SVG Export Plug-In . SVG Version: 6.00 Build 0)  -->
<svg version="1.1" id="Layer_1" xmlns="http://www.w3.org/2000/svg" xmlns:xlink="http://www.w3.org/1999/xlink" x="0px" y="0px" width="250" height="40"
	 viewBox="0 0 250 40" style="enable-background:new 0 0 250 40;" xml:space="preserve">
<g>
	<polygon points="23.51,38.58 0.59,6.56 1.41,5.97 23.5,36.85 48.09,2.07 48.9,2.65 	"/>
</g>
<g>
	<polygon points="73.84,38.91 54.64,4.28 55.52,3.8 73.61,36.44 84.78,3.08 85.73,3.4 	"/>
</g>
<g>
	<polygon points="123.9,40.52 115.12,2.47 116.1,2.25 123.62,34.84 127.77,2.3 128.76,2.42 	"/>
</g>
<g>
	<polygon points="173.88,39.02 163.62,3.38 164.59,3.1 174.14,36.33 191.63,2.66 192.51,3.12 	"/>
</g>
<g>
	<polygon points="223.81,38.6 204.38,5.26 205.24,4.76 223.89,36.75 248.43,2.03 249.25,2.61 	"/>
</g>
</svg>
