<svg id="Layer_1" data-name="Layer 1" xmlns="http://www.w3.org/2000/svg" width = '250' height='40' viewBox="0 0 250 40"><defs><style>.cls-1{fill:#231f20;}</style></defs><title>ave2</title><path class="cls-1" d="M23.51,38.58,3.56,9.84,1.41,6C11,4.3,23.5,36.85,23.5,36.85s9-28.91,24.59-34.78c0,0-14.16,17.17-16.11,20.79Z" transform="translate(-1.41 -2.07)"/><path class="cls-1" d="M73.36,38.58,63.6,22.35l-11.29-8.5c9.59-1.68,21,23,21,23s-1.38-22,21.8-23.48c0,0-13,5.83-14.63,7.51S73.36,38.58,73.36,38.58Z" transform="translate(-1.41 -2.07)"/><path class="cls-1" d="M123.76,38.58,111.19,25.94l-7.91-3c9.59-1.67,20.48,13.91,20.48,13.91s.38-11.22,16-17.1c0,0-7.46,3.19-9.41,6.81S123.76,38.58,123.76,38.58Z" transform="translate(-1.41 -2.07)"/><path class="cls-1" d="M173.79,38.58l-13.4-20.24-8-5.25c9.59-1.67,21.44,23.76,21.44,23.76-.63-1.09,5-20,22-23.37,0,0-10.67,5-12.62,8.6S173.79,38.58,173.79,38.58Z" transform="translate(-1.41 -2.07)"/><path class="cls-1" d="M224.54,38.58l-11-19.92L201.87,8.91c9.59-1.67,22.66,27.94,22.66,27.94S232.45,13.13,248,7.26c0,0-13.19,10.35-15.14,14S224.54,38.58,224.54,38.58Z" transform="translate(-1.41 -2.07)"/></svg>